<svg width="98" height="92" viewBox="0 0 98 92" fill="none" xmlns="http://www.w3.org/2000/svg">
<path d="M24.09 31.656H28.9064C28.6799 31.4529 28.4611 31.2419 28.2463 31.0271C27.4884 30.2693 26.801 29.4451 26.1916 28.5623C25.633 29.6873 24.926 30.7303 24.0939 31.6521L24.09 31.656ZM16.3595 59.234H37.4295C38.699 59.234 39.7264 60.2613 39.7264 61.5309V73.7189C39.7264 74.9884 38.6991 76.0158 37.4295 76.0158H16.3595C15.09 76.0158 14.0626 74.9885 14.0626 73.7189V61.5309C14.0626 60.2614 15.0899 59.234 16.3595 59.234ZM35.1295 63.8278H18.6525V71.4216H35.1295V63.8278ZM23.8635 12.9838C24.7385 10.2494 26.258 7.8002 28.2424 5.8158C31.469 2.5892 35.926 0.593102 40.8474 0.593102C45.7688 0.593102 50.2302 2.5892 53.4524 5.8158C56.679 9.0424 58.6751 13.4994 58.6751 18.4208C58.6751 23.3422 56.679 27.7997 53.4524 31.0258C53.2376 31.2406 53.0188 31.4477 52.7923 31.6547H66.3623C69.2725 31.6547 71.917 32.8422 73.8311 34.7563C75.7452 36.6704 76.9366 39.3149 76.9366 42.2251V45.7681L94.6986 38.8462C95.0032 38.6978 95.347 38.6118 95.7103 38.6118C96.9798 38.6118 98.0072 39.6391 98.0072 40.9087V82.1507H97.9993C97.9993 82.4242 97.9486 82.7054 97.8431 82.975C97.3861 84.1547 96.0619 84.7406 94.8822 84.2875L76.9372 77.2952V80.8382C76.9372 83.7484 75.7497 86.393 73.8317 88.3071C71.9176 90.2212 69.2731 91.4126 66.3629 91.4126H11.2029C8.2927 91.4126 5.64819 90.2251 3.73409 88.3071C1.81999 86.393 0.632495 83.7484 0.632495 80.8382V42.2293C0.632495 39.3191 1.81999 36.6745 3.73409 34.7604C4.2419 34.2526 4.80049 33.7956 5.40209 33.3971C4.92162 33.03 4.4685 32.6276 4.04269 32.2019C1.54269 29.7019 -0.000305176 26.2527 -0.000305176 22.4402C-0.000305176 18.6277 1.54659 15.1785 4.04269 12.6785C6.54269 10.1785 9.99189 8.63545 13.8044 8.63545C17.6169 8.63545 21.07 10.1824 23.5661 12.6785C23.6638 12.7761 23.7653 12.8777 23.8591 12.9831L23.8635 12.9838ZM20.3205 15.9252C18.6525 14.2572 16.3478 13.226 13.8049 13.226C11.2619 13.226 8.95722 14.2572 7.28932 15.9252C5.62132 17.5932 4.59012 19.8979 4.59012 22.4408C4.59012 24.9838 5.62132 27.2885 7.28932 28.9564C8.95732 30.6244 11.262 31.6556 13.8049 31.6556C16.3479 31.6556 18.6526 30.6244 20.3205 28.9564C21.9885 27.2884 23.0197 24.9876 23.0197 22.4408C23.0197 19.8978 21.9885 17.5931 20.3205 15.9252ZM50.2035 9.0658C47.809 6.6713 44.5004 5.1908 40.848 5.1908C37.1956 5.1908 33.8832 6.6713 31.4925 9.0658C29.098 11.4603 27.6175 14.7689 27.6175 18.4213C27.6175 22.0737 29.098 25.3861 31.4925 27.7768C33.887 30.1713 37.1956 31.6518 40.848 31.6518C44.5042 31.6518 47.8128 30.1713 50.2035 27.7768C52.598 25.3823 54.0785 22.0737 54.0785 18.4213C54.0785 14.7651 52.598 11.4565 50.2035 9.0658ZM76.9305 50.6868V72.3818L93.4075 78.8037V44.2647L76.9305 50.6868ZM66.3605 36.2528H11.2045C9.56392 36.2528 8.06782 36.9247 6.98572 38.0106C5.90372 39.0926 5.22792 40.5887 5.22792 42.2294V80.8384C5.22792 82.479 5.8998 83.9751 6.98572 85.0611C8.06772 86.1431 9.56382 86.815 11.2045 86.815H66.3645C68.0051 86.815 69.5012 86.1431 70.5872 85.0611C71.6692 83.9791 72.3411 82.483 72.3411 80.8384V42.2294C72.3411 40.5888 71.6692 39.0927 70.5872 38.0106C69.5052 36.9286 68.0091 36.2528 66.3645 36.2528H66.3605Z" fill="black"/>
</svg>
