<svg width="64" height="64" viewBox="0 0 64 64" fill="none" xmlns="http://www.w3.org/2000/svg">
<path d="M1.00098 63.999H24.994C24.997 63.999 25 64.001 25.004 64.001C25.136 64.001 25.268 63.973 25.391 63.921C25.401 63.917 25.407 63.908 25.416 63.904C25.521 63.855 25.624 63.795 25.711 63.708L27.988 61.432V62.999C27.988 63.552 28.435 63.999 28.988 63.999H52.981C52.984 63.999 52.988 64.001 52.991 64.001C53.123 64.001 53.255 63.973 53.378 63.921C53.388 63.917 53.394 63.908 53.403 63.904C53.508 63.855 53.611 63.795 53.698 63.708L63.705 53.703C63.798 53.611 63.871 53.5 63.922 53.377C63.973 53.255 63.999 53.125 63.999 52.995V28.998C63.999 28.578 63.739 28.222 63.373 28.073C63.304 28.045 63.23 28.042 63.158 28.03C63.104 28.021 63.055 27.998 62.999 27.998C62.998 27.998 62.997 27.998 62.996 27.998C62.995 27.998 62.994 27.998 62.993 27.998H48.412L50.705 25.705C50.798 25.613 50.871 25.502 50.922 25.379C50.973 25.257 50.999 25.127 50.999 24.997V0.999001C50.999 0.579001 50.739 0.223001 50.373 0.0740011C50.309 0.0480011 50.238 0.0460011 50.171 0.0330011C50.113 0.0230011 50.061 -0.0019989 49.999 -0.0019989C49.998 -0.0019989 49.997 -0.0019989 49.996 -0.0019989C49.995 -0.0019989 49.994 -0.0019989 49.993 -0.0019989H25.994C25.988 -0.0019989 25.983 0.0010011 25.977 0.0010011C25.853 0.0030011 25.729 0.0260011 25.612 0.0750011C25.498 0.122001 25.398 0.192001 25.31 0.275001C25.302 0.281001 25.293 0.283001 25.287 0.290001L15.283 10.289C15.282 10.29 15.281 10.292 15.28 10.293C15.189 10.384 15.117 10.493 15.067 10.613C15.016 10.736 14.99 10.865 14.99 10.996V27.996L11 28C10.869 28 10.738 28.026 10.615 28.078C10.501 28.125 10.4 28.196 10.312 28.28C10.305 28.286 10.296 28.288 10.291 28.294L0.342977 38.261C0.136977 38.444 0.000976562 38.703 0.000976562 39.001V62.999C0.000976563 63.552 0.447977 63.999 1.00098 63.999ZM24.002 61.999H2.00098V40.001H24.002V61.999ZM26.002 60.59V39.415L29.417 36.002H30.588L28.33 38.261C28.124 38.444 27.988 38.703 27.988 39.001V58.605L26.002 60.59ZM26.408 1.999H47.578L39.575 9.998H18.405L26.408 1.999ZM45.276 28.306L40.989 32.592V11.413L48.999 3.407V24.583L45.301 28.281C45.292 28.289 45.284 28.297 45.276 28.306ZM16.99 29.026C16.99 29.016 16.996 29.007 16.996 28.997C16.996 28.987 16.99 28.978 16.99 28.968V11.998H38.989V34.002H16.99V29.026ZM51.989 61.999H29.988V40.001H51.989V61.999ZM61.999 52.581L53.989 60.589V39.415L61.999 31.406V52.581ZM60.579 29.998L52.575 38.001H31.418L33.416 36.002H39.981C39.984 36.002 39.988 36.004 39.991 36.004C40.123 36.004 40.255 35.976 40.378 35.924C40.388 35.92 40.394 35.911 40.403 35.907C40.508 35.858 40.611 35.798 40.698 35.711L46.412 29.998H60.579ZM15.99 36.002H26.588L24.588 38.001H3.42798L11.414 30L14.99 29.999V35.002C14.99 35.555 15.438 36.002 15.99 36.002Z" fill="black"/>
</svg>
