<svg width="58" height="64" viewBox="0 0 58 64" fill="none" xmlns="http://www.w3.org/2000/svg">
<path d="M0 47.4995C0 47.8625 0.197 48.1985 0.516 48.3745L28.516 63.8745C28.666 63.9575 28.833 63.9995 29 63.9995C29.167 63.9995 29.334 63.9575 29.484 63.8745L57.484 48.3745C57.803 48.1985 58 47.8625 58 47.4995C58 47.1365 57.803 46.8005 57.484 46.6245L45.064 39.7495L57.484 32.8745C57.803 32.6985 58 32.3625 58 31.9995C58 31.6365 57.803 31.3015 57.484 31.1245L45.065 24.2495L57.484 17.3745C57.803 17.1985 58 16.8625 58 16.4995C58 16.1365 57.803 15.8005 57.484 15.6245L29.484 0.1245C29.183 -0.0415 28.816 -0.0415 28.515 0.1245L0.515 15.6245C0.197 15.8005 0 16.1365 0 16.4995C0 16.8625 0.197 17.1985 0.516 17.3745L12.935 24.2495L0.516 31.1245C0.197 31.3015 0 31.6365 0 31.9995C0 32.3625 0.197 32.6985 0.516 32.8745L12.936 39.7495L0.516 46.6245C0.197 46.8005 0 47.1365 0 47.4995ZM26.935 47.4995L14.995 54.1035L10.064 51.3745L22 44.7685L26.935 47.4995ZM29 61.8565L24.058 59.1205L49.996 44.7655L54.936 47.4995L29 61.8565ZM47.93 43.6215L21.992 57.9785L17.059 55.2485L29.484 48.3755L43 40.8935L47.93 43.6215ZM14.995 9.8955L19.931 12.6265L14.998 15.3555L10.063 12.6245L14.995 9.8955ZM21.992 6.0205L26.929 8.7525L21.996 11.4815L17.06 8.7505L21.992 6.0205ZM40.934 8.7485L35.993 11.4835L31.059 8.7535L36.001 6.0185L40.934 8.7485ZM47.93 12.6215L42.99 15.3555L38.057 12.6265L42.999 9.8925L47.93 12.6215ZM35.992 19.2285L31.059 16.4995L35.993 13.7695L40.925 16.4995L35.992 19.2285ZM42.989 17.6435L47.929 20.3775L42.998 23.1065L38.057 20.3725L42.989 17.6435ZM33.927 20.3725L28.994 23.1025L24.06 20.3725L28.994 17.6425L33.927 20.3725ZM33.926 12.6265L28.994 15.3555L24.06 12.6265L28.994 9.8965L33.926 12.6265ZM21.996 13.7695L26.928 16.4995L21.995 19.2285L17.063 16.4995L21.996 13.7695ZM19.93 20.3725L14.994 23.1035L10.063 20.3745L14.998 17.6435L19.93 20.3725ZM21.995 21.5155L26.929 24.2455L21.992 26.9775L17.059 24.2465L21.995 21.5155ZM28.994 25.3895L33.935 28.1245L29 30.8565L24.058 28.1205L28.994 25.3895ZM36.001 26.9805L31.059 24.2455L35.993 21.5155L40.934 24.2505L36.001 26.9805ZM49.995 19.2335L45.055 16.4995L49.995 13.7655L54.935 16.4995L49.995 19.2335ZM29 2.1425L33.936 4.8745L28.994 7.6095L24.057 4.8785L29 2.1425ZM7.998 13.7685L12.933 16.4995L7.998 19.2305L3.064 16.4995L7.998 13.7685ZM15 25.3925L28.516 32.8745C28.666 32.9575 28.833 32.9995 29 32.9995C29.167 32.9995 29.334 32.9575 29.484 32.8745L43 25.3925L54.936 31.9995L29 46.3565L3.064 31.9995L15 25.3925ZM15 40.8935L19.935 43.6245L7.998 50.2305L3.064 47.4995L15 40.8935Z" fill="black"/>
</svg>
